<svg id="SvgjsSvg1011" width="288" height="288" xmlns="http://www.w3.org/2000/svg" version="1.1" xmlns:xlink="http://www.w3.org/1999/xlink" xmlns:svgjs="http://svgjs.com/svgjs"><defs id="SvgjsDefs1012"></defs><g id="SvgjsG1013"><svg xmlns="http://www.w3.org/2000/svg" width="288" height="288" fill="none" viewBox="0 0 17 16"><path fill="#000000" d="M5.3265 6.11334C5.3265 6.11334 6.30586 9.49293 10.0341 10.6966L10.8874 9.67804C10.8874 9.67804 11.3454 8.98364 12.4515 9.49293C13.5573 10.0022 15.2082 11.036 15.7374 11.4218C15.7374 11.4218 16.7168 12.0854 15.9903 12.9649C15.2638 13.8444 13.4468 15.3723 12.8624 15.6346C12.278 15.8968 12.0705 16.0048 11.004 15.7157C9.93752 15.4266 6.32993 14.1534 3.34405 10.7042C0.358176 7.2551 0.0500284 4.4199 0.0500284 4.4199C0.0500284 4.4199 -0.0625183 4.02054 0.0500284 3.75431C0.162575 3.48807 1.62975 1.29859 2.96472 0.311134C2.96472 0.311134 3.73085 -0.491214 4.50511 0.481008C5.27938 1.45323 5.99805 2.57976 6.47976 3.62119C6.96148 4.66262 6.77198 4.85567 6.34552 5.23383C5.91873 5.61199 5.3265 6.11334 5.3265 6.11334Z" class="colorCCA876 svgShape"></path></svg></g></svg>